# Blender v2.74 (sub 0) OBJ File: ''
# www.blender.org
mtllib back_Wheel.mtl
o Kart.001_Kart.007
v 4.655704 4.652813 -8.426884
v 8.238019 4.658115 -8.428073
v 8.239594 3.075422 -8.776080
v 4.658885 3.070121 -8.774891
v 8.241136 1.514834 -8.314555
v 4.660428 1.509564 -8.313366
v 8.242743 0.397585 -7.168646
v 4.662002 0.390999 -7.167585
v 8.244317 0.021014 -5.645587
v 4.663577 0.014395 -5.644526
v 8.244317 0.486427 -4.151670
v 4.662002 0.479840 -4.150610
v 8.242743 1.669093 -3.088562
v 4.662002 1.662506 -3.087502
v 8.239594 3.253136 -2.740458
v 4.658885 3.246517 -2.739398
v 8.238019 4.812374 -3.200409
v 4.657311 4.807073 -3.199252
v 8.236444 5.930972 -4.346220
v 4.655704 5.924353 -4.345160
v 8.234902 6.307512 -5.870951
v 4.654162 6.300925 -5.869857
v 8.236444 5.842100 -7.364834
v 4.654162 5.835513 -7.363774
v 8.507564 3.246838 -2.963670
v 8.504416 4.691209 -3.390719
v 8.502872 5.725592 -4.451032
v 8.502872 6.074885 -5.861889
v 8.502872 5.644334 -7.244667
v 8.504416 4.547939 -8.230276
v 8.505989 3.081719 -8.551197
v 8.507564 1.638665 -8.125690
v 8.509106 0.602965 -7.063835
v 8.510680 0.253640 -5.652977
v 8.510680 0.685541 -4.270072
v 8.509106 1.780586 -3.286263
vt 0.950300 0.746300
vt 0.704800 0.746300
vt 0.704800 0.675400
vt 0.950300 0.675400
vt 0.998500 0.124700
vt 0.986900 0.065600
vt 0.989500 0.124700
vt 0.979200 0.179500
vt 0.986900 0.183800
vt 0.938300 0.219500
vt 0.942800 0.227100
vt 0.882600 0.234200
vt 0.882600 0.243000
vt 0.826800 0.219500
vt 0.822300 0.227100
vt 0.786000 0.179500
vt 0.778200 0.183800
vt 0.771000 0.124700
vt 0.762100 0.124700
vt 0.786000 0.070000
vt 0.826800 0.029900
vt 0.882600 0.015200
vt 0.938300 0.029900
vt 0.979200 0.070000
vt 0.942800 0.022300
vt 0.882600 0.006500
vt 0.822300 0.022300
vt 0.778200 0.065600
vn 0.074900 0.510400 -0.856700
vn 0.341400 0.324800 -0.882000
vn 0.314000 -0.092600 -0.944900
vn 0.050700 -0.033700 -0.998100
vn 0.311900 -0.453100 -0.835100
vn 0.010400 -0.482600 -0.875800
vn 0.336100 -0.763200 -0.551900
vn 0.006100 -0.823700 -0.567100
vn 0.366800 -0.929200 -0.044600
vn 0.010700 -0.995400 0.095200
vn 0.374300 -0.751200 0.543700
vn 0.055400 -0.827700 0.558400
vn 0.342900 -0.324300 0.881600
vn 0.098600 -0.441100 0.892000
vn 0.311500 0.093600 0.945600
vn 0.051600 0.033300 0.998100
vn 0.311400 0.453100 0.835300
vn 0.009300 0.482300 0.876000
vn 0.334600 0.764000 0.551600
vn 0.003300 0.824000 0.566600
vn 0.363400 0.930600 0.044100
vn 0.007000 0.995400 -0.095400
vn 0.372000 0.752100 -0.544000
vn 0.052300 0.827700 -0.558800
vn 0.875200 0.052400 0.480900
vn 0.872200 0.224000 0.434900
vn 0.881400 0.371100 0.292300
vn 0.898000 0.439100 0.027400
vn 0.902800 0.337500 -0.266400
vn 0.888800 0.141500 -0.435900
vn 0.876500 -0.050100 -0.478800
vn 0.872500 -0.221900 -0.435400
vn 0.881700 -0.369900 -0.292700
vn 0.899000 -0.437000 -0.027300
vn 0.903300 -0.335600 0.267300
vn 0.889100 -0.139700 0.435900
usemtl Material__25.004
s 1
f 1/1/1 2/2/2 3/3/3
f 4/4/4 1/1/1 3/3/3
f 4/4/4 3/3/3 5/2/5
f 6/1/6 4/4/4 5/2/5
f 6/1/6 5/2/5 7/3/7
f 8/4/8 6/1/6 7/3/7
f 8/4/8 7/3/7 9/2/9
f 10/1/10 8/4/8 9/2/9
f 10/1/10 9/2/9 11/3/11
f 12/4/12 10/1/10 11/3/11
f 12/4/12 11/3/11 13/2/13
f 14/1/14 12/4/12 13/2/13
f 14/1/14 13/2/13 15/3/15
f 16/4/16 14/1/14 15/3/15
f 16/4/16 15/3/15 17/2/17
f 18/1/18 16/4/16 17/2/17
f 18/1/18 17/2/17 19/3/19
f 20/4/20 18/1/18 19/3/19
f 20/4/20 19/3/19 21/2/21
f 22/1/22 20/4/20 21/2/21
f 22/1/22 21/2/21 23/3/23
f 24/4/24 22/1/22 23/3/23
f 24/4/24 23/3/23 2/2/2
f 1/1/1 24/4/24 2/2/2
f 15/5/15 13/6/13 25/7/25
f 15/5/15 25/7/25 26/8/26
f 17/9/17 15/5/15 26/8/26
f 17/9/17 26/8/26 27/10/27
f 19/11/19 17/9/17 27/10/27
f 19/11/19 27/10/27 28/12/28
f 21/13/21 19/11/19 28/12/28
f 21/13/21 28/12/28 29/14/29
f 23/15/23 21/13/21 29/14/29
f 23/15/23 29/14/29 30/16/30
f 2/17/2 23/15/23 30/16/30
f 2/17/2 30/16/30 31/18/31
f 3/19/3 2/17/2 31/18/31
f 32/20/32 3/19/3 31/18/31
f 32/20/32 31/18/31 30/16/30
f 33/21/33 32/20/32 30/16/30
f 33/21/33 30/16/30 29/14/29
f 34/22/34 33/21/33 29/14/29
f 34/22/34 29/14/29 28/12/28
f 35/23/35 34/22/34 28/12/28
f 35/23/35 28/12/28 27/10/27
f 36/24/36 35/23/35 27/10/27
f 36/24/36 27/10/27 26/8/26
f 36/24/36 26/8/26 25/7/25
f 36/24/36 25/7/25 13/6/13
f 36/24/36 13/6/13 11/25/11
f 35/23/35 36/24/36 11/25/11
f 35/23/35 11/25/11 9/26/9
f 34/22/34 35/23/35 9/26/9
f 34/22/34 9/26/9 7/27/7
f 33/21/33 34/22/34 7/27/7
f 33/21/33 7/27/7 5/28/5
f 32/20/32 33/21/33 5/28/5
f 32/20/32 5/28/5 3/19/3
