# Blender v2.74 (sub 0) OBJ File: ''
# www.blender.org
mtllib front_Wheel.mtl
o Kart.000_Kart.006
v 4.652588 4.703610 5.878309
v 8.233329 4.708848 5.865457
v 8.233329 3.126155 5.517482
v 4.652588 3.119568 5.530205
v 8.238019 1.565567 5.977336
v 4.655704 1.560330 5.990124
v 8.242743 0.448319 7.123213
v 4.662002 0.441732 7.135937
v 8.247434 0.070398 8.647846
v 4.666693 0.065193 8.660634
v 8.252125 0.535843 10.141763
v 4.671384 0.530606 10.154551
v 8.253699 1.719827 11.204999
v 4.672959 1.713271 11.217659
v 8.252125 3.302520 11.552975
v 4.671384 3.297314 11.565795
v 8.249008 4.863076 11.091482
v 4.668268 4.856553 11.104173
v 8.244317 5.980356 9.945540
v 4.663577 5.975119 9.958393
v 8.239594 6.358244 8.422610
v 4.657311 6.351689 8.435334
v 8.234902 5.892831 6.928694
v 4.654162 5.886277 6.941419
v 8.518520 3.296255 11.328124
v 8.515404 4.740592 10.901043
v 8.510680 5.776294 9.840858
v 8.505989 6.125587 8.429968
v 8.502872 5.693717 7.045457
v 8.501298 4.598639 6.061615
v 8.501298 3.132421 5.740694
v 8.504416 1.688050 6.166072
v 8.509106 0.653666 7.228055
v 8.513829 0.304374 8.638914
v 8.518520 0.734925 10.021690
v 8.520095 1.829970 11.005500
vt 0.950300 0.746300
vt 0.704800 0.746300
vt 0.704800 0.675400
vt 0.950300 0.675400
vt 0.998500 0.124700
vt 0.986900 0.065600
vt 0.989500 0.124700
vt 0.979200 0.179500
vt 0.986900 0.183800
vt 0.938300 0.219500
vt 0.942800 0.227100
vt 0.882600 0.234200
vt 0.882600 0.243000
vt 0.826800 0.219500
vt 0.822300 0.227100
vt 0.786000 0.179500
vt 0.778200 0.183800
vt 0.771000 0.124700
vt 0.762100 0.124700
vt 0.786000 0.070000
vt 0.826800 0.029900
vt 0.882600 0.015200
vt 0.938300 0.029900
vt 0.979200 0.070000
vt 0.942800 0.022300
vt 0.882600 0.006500
vt 0.822300 0.022300
vt 0.778200 0.065600
vn 0.072100 0.510300 -0.857000
vn 0.337200 0.324900 -0.883600
vn 0.309800 -0.092500 -0.946300
vn 0.047500 -0.033500 -0.998300
vn 0.309900 -0.452500 -0.836200
vn 0.007600 -0.482200 -0.876000
vn 0.335200 -0.762900 -0.552900
vn 0.004200 -0.823700 -0.567000
vn 0.367600 -0.928800 -0.046000
vn 0.010600 -0.995400 0.095200
vn 0.375900 -0.751100 0.542700
vn 0.057200 -0.827600 0.558400
vn 0.345200 -0.323900 0.880900
vn 0.101500 -0.441100 0.891700
vn 0.315800 0.093400 0.944200
vn 0.054600 0.033900 0.997900
vn 0.313400 0.453600 0.834300
vn 0.012100 0.482600 0.875800
vn 0.334900 0.764300 0.551100
vn 0.005200 0.823600 0.567100
vn 0.364700 0.930100 0.043700
vn 0.006900 0.995400 -0.095100
vn 0.369000 0.752600 -0.545400
vn 0.050500 0.827700 -0.558900
vn 0.876800 0.052000 0.478000
vn 0.873400 0.223600 0.432600
vn 0.881400 0.372500 0.290500
vn 0.898700 0.437800 0.024900
vn 0.901400 0.337700 -0.270900
vn 0.886500 0.141800 -0.440500
vn 0.873800 -0.050500 -0.483600
vn 0.871200 -0.222100 -0.437900
vn 0.881300 -0.369600 -0.294400
vn 0.899500 -0.435800 -0.030600
vn 0.904200 -0.335900 0.263900
vn 0.890300 -0.140200 0.433200
usemtl Material__25.004
s 1
f 1/1/1 2/2/2 3/3/3
f 4/4/4 1/1/1 3/3/3
f 4/4/4 3/3/3 5/2/5
f 6/1/6 4/4/4 5/2/5
f 6/1/6 5/2/5 7/3/7
f 8/4/8 6/1/6 7/3/7
f 8/4/8 7/3/7 9/2/9
f 10/1/10 8/4/8 9/2/9
f 10/1/10 9/2/9 11/3/11
f 12/4/12 10/1/10 11/3/11
f 12/4/12 11/3/11 13/2/13
f 14/1/14 12/4/12 13/2/13
f 14/1/14 13/2/13 15/3/15
f 16/4/16 14/1/14 15/3/15
f 16/4/16 15/3/15 17/2/17
f 18/1/18 16/4/16 17/2/17
f 18/1/18 17/2/17 19/3/19
f 20/4/20 18/1/18 19/3/19
f 20/4/20 19/3/19 21/2/21
f 22/1/22 20/4/20 21/2/21
f 22/1/22 21/2/21 23/3/23
f 24/4/24 22/1/22 23/3/23
f 24/4/24 23/3/23 2/2/2
f 1/1/1 24/4/24 2/2/2
f 15/5/15 13/6/13 25/7/25
f 15/5/15 25/7/25 26/8/26
f 17/9/17 15/5/15 26/8/26
f 17/9/17 26/8/26 27/10/27
f 19/11/19 17/9/17 27/10/27
f 19/11/19 27/10/27 28/12/28
f 21/13/21 19/11/19 28/12/28
f 21/13/21 28/12/28 29/14/29
f 23/15/23 21/13/21 29/14/29
f 23/15/23 29/14/29 30/16/30
f 2/17/2 23/15/23 30/16/30
f 2/17/2 30/16/30 31/18/31
f 3/19/3 2/17/2 31/18/31
f 32/20/32 3/19/3 31/18/31
f 32/20/32 31/18/31 30/16/30
f 33/21/33 32/20/32 30/16/30
f 33/21/33 30/16/30 29/14/29
f 34/22/34 33/21/33 29/14/29
f 34/22/34 29/14/29 28/12/28
f 35/23/35 34/22/34 28/12/28
f 35/23/35 28/12/28 27/10/27
f 36/24/36 35/23/35 27/10/27
f 36/24/36 27/10/27 26/8/26
f 36/24/36 26/8/26 25/7/25
f 36/24/36 25/7/25 13/6/13
f 36/24/36 13/6/13 11/25/11
f 35/23/35 36/24/36 11/25/11
f 35/23/35 11/25/11 9/26/9
f 34/22/34 35/23/35 9/26/9
f 34/22/34 9/26/9 7/27/7
f 33/21/33 34/22/34 7/27/7
f 33/21/33 7/27/7 5/28/5
f 32/20/32 33/21/33 5/28/5
f 32/20/32 5/28/5 3/19/3
