# Blender v2.74 (sub 0) OBJ File: ''
# www.blender.org
mtllib back_Wheel.mtl
o DrawCall_62.002
v 4.649867 5.165927 -4.465036
v 4.651447 5.852510 -5.801518
v 4.651447 5.761759 -7.284567
v 4.649867 4.915884 -8.519155
v 4.649867 3.539556 -9.173879
v 4.648286 2.007097 -9.071898
v 4.646623 0.723184 -8.240412
v 4.645042 0.036600 -6.905509
v 4.645042 0.129015 -5.420796
v 4.646623 0.974892 -4.186294
v 4.646623 2.349639 -3.533150
v 4.648286 3.883595 -3.635131
v 8.101748 3.880435 -3.635131
v 8.103412 5.162766 -4.463456
v 8.404447 3.740273 -3.985576
v 8.406028 4.855326 -4.707179
v 8.404447 2.405370 -3.896405
v 8.100167 2.346395 -3.531570
v 8.402866 1.210629 -4.463456
v 8.098587 0.971731 -4.186294
v 8.402866 0.474719 -5.537085
v 8.098587 0.124274 -5.420796
v 8.402866 0.393451 -6.828982
v 8.098587 0.031859 -6.903845
v 8.402866 0.992443 -7.990284
v 8.100167 0.721603 -8.240412
v 8.404447 2.107497 -8.711886
v 8.100167 2.002356 -9.070317
v 8.406028 3.440820 -8.801058
v 8.101748 3.537976 -9.172215
v 8.406028 4.635478 -8.234007
v 8.103412 4.912723 -8.519155
v 8.406028 5.373051 -7.160378
v 8.103412 5.758515 -7.284567
v 8.406028 5.452655 -5.868481
v 8.103412 5.850931 -5.801518
vt 0.587400 0.255200
vt 0.587400 0.179700
vt 0.831700 0.179700
vt 0.831700 0.255200
vt 0.604100 0.624600
vt 0.588500 0.563000
vt 0.545800 0.518000
vt 0.429100 0.518000
vt 0.487500 0.501500
vt 0.545800 0.731200
vt 0.588500 0.686200
vt 0.429100 0.731200
vt 0.487500 0.747700
vt 0.370800 0.624600
vt 0.386400 0.686200
vt 0.386400 0.563000
vn 0.000500 0.741400 0.671000
vn 0.000100 0.315000 0.949100
vn 0.407500 0.289300 0.866200
vn 0.414600 0.675800 0.609400
vn 0.925800 0.115100 0.360000
vn 0.929600 0.270300 0.250700
vn 0.923600 -0.074000 0.376200
vn 0.402000 -0.171000 0.899500
vn 0.921500 -0.252400 0.295100
vn 0.399400 -0.595700 0.696900
vn 0.922000 -0.365700 0.126900
vn 0.400400 -0.866500 0.298200
vn 0.922000 -0.379000 -0.079600
vn 0.400400 -0.896800 -0.188200
vn 0.922700 -0.286500 -0.258000
vn 0.402300 -0.678500 -0.614600
vn 0.924300 -0.122900 -0.361200
vn 0.404300 -0.287400 -0.868300
vn 0.927200 0.065800 -0.368800
vn 0.409800 0.173000 -0.895600
vn 0.930500 0.234500 -0.281500
vn 0.417200 0.591700 -0.689900
vn 0.932000 0.342300 -0.119000
vn 0.420500 0.858100 -0.294500
vn 0.931800 0.354700 0.076900
vn 0.419800 0.888600 0.184700
vn 0.000500 0.978700 0.205400
vn 0.000700 0.945700 -0.325100
vn 0.000600 0.649600 -0.760300
vn 0.000500 0.187600 -0.982300
vn 0.000000 -0.315000 -0.949100
vn -0.000400 -0.741600 -0.670900
vn -0.001000 -0.978700 -0.205200
vn -0.001300 -0.945600 0.325400
vn -0.000700 -0.649300 0.760500
vn -0.000500 -0.187500 0.982300
usemtl Material__25.003
s 1
f 1/1/1 12/2/2 13/3/3
f 14/4/4 1/1/1 13/3/3
f 14/4/4 13/3/3 15/3/5
f 16/4/6 14/4/4 15/3/5
f 17/4/7 15/3/5 13/3/3
f 17/4/7 13/3/3 18/4/8
f 19/3/9 17/4/7 18/4/8
f 19/3/9 18/4/8 20/3/10
f 21/4/11 19/3/9 20/3/10
f 21/4/11 20/3/10 22/4/12
f 23/3/13 21/4/11 22/4/12
f 23/3/13 22/4/12 24/3/14
f 25/4/15 23/3/13 24/3/14
f 25/4/15 24/3/14 26/4/16
f 27/3/17 25/4/15 26/4/16
f 27/3/17 26/4/16 28/3/18
f 29/4/19 27/3/17 28/3/18
f 29/4/19 28/3/18 30/4/20
f 31/3/21 29/4/19 30/4/20
f 31/3/21 30/4/20 32/3/22
f 33/4/23 31/3/21 32/3/22
f 33/4/23 32/3/22 34/4/24
f 35/3/25 33/4/23 34/4/24
f 35/3/25 34/4/24 36/3/26
f 16/4/6 35/3/25 36/3/26
f 14/4/4 16/4/6 36/3/26
f 14/4/4 36/3/26 2/2/27
f 1/1/1 14/4/4 2/2/27
f 3/1/28 2/2/27 36/3/26
f 3/1/28 36/3/26 34/4/24
f 4/2/29 3/1/28 34/4/24
f 4/2/29 34/4/24 32/3/22
f 5/1/30 4/2/29 32/3/22
f 5/1/30 32/3/22 30/4/20
f 6/2/31 5/1/30 30/4/20
f 6/2/31 30/4/20 28/3/18
f 7/1/32 6/2/31 28/3/18
f 7/1/32 28/3/18 26/4/16
f 8/2/33 7/1/32 26/4/16
f 8/2/33 26/4/16 24/3/14
f 9/1/34 8/2/33 24/3/14
f 9/1/34 24/3/14 22/4/12
f 10/2/35 9/1/34 22/4/12
f 10/2/35 22/4/12 20/3/10
f 11/1/36 10/2/35 20/3/10
f 11/1/36 20/3/10 18/4/8
f 12/2/2 11/1/36 18/4/8
f 12/2/2 18/4/8 13/3/3
f 27/5/17 29/6/19 31/7/21
f 35/8/25 27/5/17 31/7/21
f 35/8/25 31/7/21 33/9/23
f 23/10/13 25/11/15 27/5/17
f 23/10/13 27/5/17 19/12/9
f 21/13/11 23/10/13 19/12/9
f 19/12/9 27/5/17 35/8/25
f 19/12/9 35/8/25 15/14/5
f 17/15/7 19/12/9 15/14/5
f 15/14/5 35/8/25 16/16/6
