# Blender v2.74 (sub 0) OBJ File: ''
# www.blender.org
mtllib back_Wheel.mtl
o Kart.002
v 4.259711 3.270264 -3.594268
v 4.256787 4.880276 -4.050469
v 7.589662 3.278400 -3.595355
v 7.586738 4.888374 -4.054931
v 7.882548 3.261528 -4.004879
v 7.879662 4.660499 -4.402255
v 7.583813 6.068280 -5.225987
v 7.876737 5.687700 -5.422369
v 7.582388 6.505923 -6.795096
v 7.875275 6.067381 -6.786810
v 7.582388 6.078667 -8.344973
v 7.875275 5.695912 -8.133331
v 7.582388 4.906221 -9.454507
v 7.876737 4.675310 -9.100546
v 7.585275 3.297709 -9.833474
v 7.879662 3.278025 -9.428524
v 7.588162 1.690395 -9.373636
v 7.881124 1.879054 -9.029461
v 7.591086 0.507790 -8.202879
v 7.884011 0.851853 -8.011070
v 7.592549 0.071572 -6.631895
v 7.885472 0.472173 -6.644905
v 7.592549 0.497442 -5.085581
v 7.885472 0.842255 -5.300222
v 7.591086 1.672549 -3.972411
v 7.884011 1.862895 -4.331283
v 4.262636 1.663101 -3.969712
v 4.262636 0.489306 -5.082807
v 4.262636 0.064786 -6.629008
v 4.261173 0.499692 -8.200067
v 4.258249 1.680947 -9.370975
v 4.255325 3.290961 -9.830587
v 4.252438 4.896773 -9.451807
v 4.252438 6.070530 -8.342161
v 4.252438 6.496439 -6.792397
v 4.253862 6.061532 -5.223063
vt 0.401100 0.996700
vt 0.401100 0.926700
vt 0.646100 0.926700
vt 0.646100 0.996700
vt 0.998400 0.125100
vt 0.982800 0.068300
vt 0.940000 0.026600
vt 0.823200 0.026600
vt 0.881600 0.011400
vt 0.940000 0.223600
vt 0.982800 0.182000
vt 0.823200 0.223600
vt 0.764900 0.125100
vt 0.780500 0.068300
vt 0.780500 0.182000
vt 0.881600 0.238800
vn 0.042100 0.483700 0.874200
vn 0.021700 0.067000 0.997500
vn 0.400300 0.072500 0.913500
vn 0.400000 0.424200 0.812400
vn 0.923900 0.033100 0.381100
vn 0.923500 0.167200 0.345400
vn 0.420500 0.725600 0.544700
vn 0.932400 0.277900 0.231200
vn 0.446100 0.892700 0.064200
vn 0.944700 0.326600 0.029800
vn 0.456100 0.735900 -0.500500
vn 0.945800 0.258400 -0.196900
vn 0.428800 0.337100 -0.838100
vn 0.932800 0.115800 -0.341200
vn 0.396600 -0.068000 -0.915500
vn 0.921500 -0.035500 -0.386800
vn 0.388100 -0.422700 -0.818900
vn 0.917200 -0.175000 -0.357900
vn 0.406000 -0.729500 -0.550400
vn 0.924300 -0.293200 -0.244500
vn 0.433100 -0.899000 -0.064400
vn 0.937000 -0.347700 -0.033600
vn 0.444800 -0.739700 0.505000
vn 0.940200 -0.272900 0.203800
vn 0.422800 -0.333800 0.842500
vn 0.930700 -0.120500 0.345400
vn 0.065700 -0.528200 0.846600
vn 0.089400 0.860100 0.502300
vn 0.051600 0.998600 0.007100
vn 0.002500 0.880300 -0.474500
vn 0.002800 0.394400 -0.918900
vn 0.014200 -0.068900 -0.997500
vn 0.049100 -0.515500 -0.855500
vn 0.093600 -0.859700 -0.502100
vn 0.057100 -0.998300 -0.007300
vn 0.007700 -0.880800 0.473400
usemtl Material__25.002
s 1
f 2/1/1 1/2/2 3/3/3
f 4/4/4 2/1/1 3/3/3
f 4/4/4 3/3/3 5/3/5
f 4/4/4 5/3/5 6/4/6
f 7/3/7 4/4/4 6/4/6
f 7/3/7 6/4/6 8/3/8
f 9/4/9 7/3/7 8/3/8
f 9/4/9 8/3/8 10/4/10
f 11/3/11 9/4/9 10/4/10
f 11/3/11 10/4/10 12/3/12
f 13/4/13 11/3/11 12/3/12
f 13/4/13 12/3/12 14/4/14
f 15/3/15 13/4/13 14/4/14
f 15/3/15 14/4/14 16/3/16
f 17/4/17 15/3/15 16/3/16
f 17/4/17 16/3/16 18/4/18
f 19/3/19 17/4/17 18/4/18
f 19/3/19 18/4/18 20/3/20
f 21/4/21 19/3/19 20/3/20
f 21/4/21 20/3/20 22/4/22
f 23/3/23 21/4/21 22/4/22
f 23/3/23 22/4/22 24/3/24
f 25/4/25 23/3/23 24/3/24
f 25/4/25 24/3/24 26/4/26
f 3/3/3 25/4/25 26/4/26
f 3/3/3 26/4/26 5/3/5
f 25/4/25 3/3/3 1/2/2
f 27/1/27 25/4/25 1/2/2
f 36/2/28 2/1/1 4/4/4
f 36/2/28 4/4/4 7/3/7
f 35/1/29 36/2/28 7/3/7
f 35/1/29 7/3/7 9/4/9
f 34/2/30 35/1/29 9/4/9
f 34/2/30 9/4/9 11/3/11
f 33/1/31 34/2/30 11/3/11
f 33/1/31 11/3/11 13/4/13
f 32/2/32 33/1/31 13/4/13
f 32/2/32 13/4/13 15/3/15
f 31/1/33 32/2/32 15/3/15
f 31/1/33 15/3/15 17/4/17
f 30/2/34 31/1/33 17/4/17
f 30/2/34 17/4/17 19/3/19
f 29/1/35 30/2/34 19/3/19
f 29/1/35 19/3/19 21/4/21
f 28/2/36 29/1/35 21/4/21
f 28/2/36 21/4/21 23/3/23
f 27/1/27 28/2/36 23/3/23
f 27/1/27 23/3/23 25/4/25
f 16/5/16 14/6/14 12/7/12
f 8/8/8 16/5/16 12/7/12
f 8/8/8 12/7/12 10/9/10
f 20/10/20 18/11/18 16/5/16
f 24/12/24 20/10/20 16/5/16
f 24/12/24 16/5/16 8/8/8
f 5/13/5 24/12/24 8/8/8
f 5/13/5 8/8/8 6/14/6
f 24/12/24 5/13/5 26/15/26
f 20/10/20 24/12/24 22/16/22
o Kart.000
v 4.259711 3.270264 -3.594268
v 4.256787 4.880276 -4.050469
v 7.589662 3.278400 -3.595355
v 7.586738 4.888374 -4.054931
v 7.882548 3.261528 -4.004879
v 7.879662 4.660499 -4.402255
v 7.583813 6.068280 -5.225987
v 7.876737 5.687700 -5.422369
v 7.582388 6.505923 -6.795096
v 7.875275 6.067381 -6.786810
v 7.582388 6.078667 -8.344973
v 7.875275 5.695912 -8.133331
v 7.582388 4.906221 -9.454507
v 7.876737 4.675310 -9.100546
v 7.585275 3.297709 -9.833474
v 7.879662 3.278025 -9.428524
v 7.588162 1.690395 -9.373636
v 7.881124 1.879054 -9.029461
v 7.591086 0.507790 -8.202879
v 7.884011 0.851853 -8.011070
v 7.592549 0.071572 -6.631895
v 7.885472 0.472173 -6.644905
v 7.592549 0.497442 -5.085581
v 7.885472 0.842255 -5.300222
v 7.591086 1.672549 -3.972411
v 7.884011 1.862895 -4.331283
v 4.262636 1.663101 -3.969712
v 4.262636 0.489306 -5.082807
v 4.262636 0.064786 -6.629008
v 4.261173 0.499692 -8.200067
v 4.258249 1.680947 -9.370975
v 4.255325 3.290961 -9.830587
v 4.252438 4.896773 -9.451807
v 4.252438 6.070530 -8.342161
v 4.252438 6.496439 -6.792397
v 4.253862 6.061532 -5.223063
vt 0.401100 0.996700
vt 0.401100 0.926700
vt 0.646100 0.926700
vt 0.646100 0.996700
vt 0.998400 0.125100
vt 0.982800 0.068300
vt 0.940000 0.026600
vt 0.823200 0.026600
vt 0.881600 0.011400
vt 0.940000 0.223600
vt 0.982800 0.182000
vt 0.823200 0.223600
vt 0.764900 0.125100
vt 0.780500 0.068300
vt 0.780500 0.182000
vt 0.881600 0.238800
vn 0.042100 0.483700 0.874200
vn 0.021700 0.067000 0.997500
vn 0.400300 0.072500 0.913500
vn 0.236700 0.489800 0.839100
vn 0.923900 0.033100 0.381100
vn 0.947500 0.096200 0.305100
vn 0.393300 0.741800 0.543200
vn 0.932400 0.277900 0.231200
vn 0.446100 0.892700 0.064200
vn 0.944700 0.326600 0.029800
vn 0.456100 0.735900 -0.500500
vn 0.945800 0.258400 -0.196900
vn 0.428800 0.337100 -0.838100
vn 0.932800 0.115800 -0.341200
vn 0.396600 -0.068000 -0.915500
vn 0.921500 -0.035500 -0.386800
vn 0.388100 -0.422700 -0.818900
vn 0.917200 -0.175000 -0.357900
vn 0.406000 -0.729500 -0.550400
vn 0.924300 -0.293200 -0.244500
vn 0.433100 -0.899000 -0.064400
vn 0.937000 -0.347700 -0.033600
vn 0.444800 -0.739700 0.505000
vn 0.940200 -0.272900 0.203800
vn 0.422800 -0.333800 0.842500
vn 0.930700 -0.120500 0.345400
vn 0.065700 -0.528200 0.846600
vn 0.089400 0.860100 0.502300
vn 0.051600 0.998600 0.007100
vn 0.002500 0.880300 -0.474500
vn 0.002800 0.394400 -0.918900
vn 0.014200 -0.068900 -0.997500
vn 0.049100 -0.515500 -0.855500
vn 0.093600 -0.859700 -0.502100
vn 0.057100 -0.998300 -0.007300
vn 0.007700 -0.880800 0.473400
usemtl Material__25.002
s 1
f 38/17/37 37/18/38 39/19/39
f 40/20/40 38/17/37 39/19/39
f 40/20/40 39/19/39 41/19/41
f 40/20/40 41/19/41 42/20/42
f 43/19/43 42/20/42 44/19/44
f 45/20/45 43/19/43 44/19/44
f 45/20/45 44/19/44 46/20/46
f 47/19/47 45/20/45 46/20/46
f 47/19/47 46/20/46 48/19/48
f 49/20/49 47/19/47 48/19/48
f 49/20/49 48/19/48 50/20/50
f 51/19/51 49/20/49 50/20/50
f 51/19/51 50/20/50 52/19/52
f 53/20/53 51/19/51 52/19/52
f 53/20/53 52/19/52 54/20/54
f 55/19/55 53/20/53 54/20/54
f 55/19/55 54/20/54 56/19/56
f 57/20/57 55/19/55 56/19/56
f 57/20/57 56/19/56 58/20/58
f 59/19/59 57/20/57 58/20/58
f 59/19/59 58/20/58 60/19/60
f 61/20/61 59/19/59 60/19/60
f 61/20/61 60/19/60 62/20/62
f 39/19/39 61/20/61 62/20/62
f 39/19/39 62/20/62 41/19/41
f 61/20/61 39/19/39 37/18/38
f 63/17/63 61/20/61 37/18/38
f 72/18/64 38/17/37 40/20/40
f 72/18/64 40/20/40 43/19/43
f 71/17/65 72/18/64 43/19/43
f 71/17/65 43/19/43 45/20/45
f 70/18/66 71/17/65 45/20/45
f 70/18/66 45/20/45 47/19/47
f 69/17/67 70/18/66 47/19/47
f 69/17/67 47/19/47 49/20/49
f 68/18/68 69/17/67 49/20/49
f 68/18/68 49/20/49 51/19/51
f 67/17/69 68/18/68 51/19/51
f 67/17/69 51/19/51 53/20/53
f 66/18/70 67/17/69 53/20/53
f 66/18/70 53/20/53 55/19/55
f 65/17/71 66/18/70 55/19/55
f 65/17/71 55/19/55 57/20/57
f 64/18/72 65/17/71 57/20/57
f 64/18/72 57/20/57 59/19/59
f 63/17/63 64/18/72 59/19/59
f 63/17/63 59/19/59 61/20/61
f 52/21/52 50/22/50 48/23/48
f 44/24/44 52/21/52 48/23/48
f 44/24/44 48/23/48 46/25/46
f 56/26/56 54/27/54 52/21/52
f 60/28/60 56/26/56 52/21/52
f 60/28/60 52/21/52 44/24/44
f 41/29/41 60/28/60 44/24/44
f 41/29/41 44/24/44 42/30/42
f 60/28/60 41/29/41 62/31/62
f 56/26/56 60/28/60 58/32/58
